<svg width="27" height="23" viewBox="0 0 27 23" fill="none" xmlns="http://www.w3.org/2000/svg">
<path fill-rule="evenodd" clip-rule="evenodd" d="M13.5059 0.964949C12.6639 1.80689 12.6639 3.17194 13.5059 4.01388L21.1282 11.6362L13.5059 19.2584C12.6639 20.1004 12.6639 21.4654 13.5059 22.3074C14.3478 23.1493 15.7129 23.1493 16.5548 22.3074L25.7016 13.1606C26.1059 12.7563 26.333 12.2079 26.333 11.6362C26.333 11.0644 26.1059 10.516 25.7016 10.1117L16.5548 0.964949C15.7129 0.123012 14.3478 0.123012 13.5059 0.964949Z" fill="#0A1E30"/>
<path fill-rule="evenodd" clip-rule="evenodd" d="M26.333 11.6359C26.333 10.4452 25.3678 9.47998 24.1771 9.47998H2.61793C1.42725 9.47998 0.462009 10.4452 0.462009 11.6359C0.462009 12.8266 1.42725 13.7918 2.61793 13.7918H24.1771C25.3678 13.7918 26.333 12.8266 26.333 11.6359Z" fill="#0A1E30"/>
</svg>
