<svg width="24" height="24" viewBox="0 0 24 24" fill="none" xmlns="http://www.w3.org/2000/svg">
<rect width="24" height="23.9999" rx="6" fill="#0A1E30"/>
<path d="M10.1412 12.743L12.6642 15.5579L9.99595 15.7913C9.83583 15.5307 9.54996 15.1545 9.13835 14.663L8.85983 14.3296C8.82244 14.3979 8.7782 14.4704 8.72709 14.5472C8.68316 14.6233 8.63985 14.7066 8.59717 14.797C8.47129 15.0104 8.35227 15.2196 8.24011 15.4245C8.13512 15.6289 8.04976 15.8098 7.98404 15.9673L5.31583 16.2008L7.31164 12.9906L4.88796 10.3189L7.54541 10.0864C7.6634 10.2784 7.88436 10.5735 8.20828 10.9716L8.61039 11.4785L8.87117 10.9895C9.13288 10.5112 9.31139 10.1559 9.4067 9.92354L12.0642 9.69105L10.1412 12.743Z" fill="white"/>
<path d="M17.6717 13.1141C18.316 13.0433 18.7917 12.9872 19.0989 12.9459L19.2768 14.9793L13.5853 15.4773L13.4074 13.4438C14.1846 13.4048 14.7704 13.368 15.1649 13.3335L14.8401 9.62164C14.6315 10.2109 14.1363 10.6228 13.3546 10.8574C13.259 10.0129 13.1127 9.24878 12.9155 8.56497C13.4824 8.43587 13.872 8.30421 14.0843 8.16999C14.3032 8.02798 14.4673 7.87991 14.5767 7.72579C14.6933 7.57105 14.7708 7.46669 14.8095 7.41271L14.8076 7.3912L17.1531 7.186L17.6717 13.1141Z" fill="white"/>
</svg>
