<svg width="40" height="40" viewBox="0 0 40 40" fill="none" xmlns="http://www.w3.org/2000/svg">
<rect width="40" height="40" rx="8" transform="matrix(-1 0 0 1 40 0)" fill="#F5F6F7"/>
<path fill-rule="evenodd" clip-rule="evenodd" d="M20.3037 13.3789C19.7986 13.884 19.7986 14.7031 20.3037 15.2082L24.8771 19.7816L20.3037 24.355C19.7986 24.8601 19.7986 25.6791 20.3037 26.1843C20.8089 26.6895 21.6279 26.6895 22.1331 26.1843L27.6211 20.6963C27.8637 20.4537 28 20.1247 28 19.7816C28 19.4385 27.8637 19.1095 27.6211 18.8669L22.1331 13.3789C21.6279 12.8737 20.8089 12.8737 20.3037 13.3789Z" fill="#0A1E30"/>
<path fill-rule="evenodd" clip-rule="evenodd" d="M28 19.7813C28 19.0669 27.4209 18.4878 26.7064 18.4878H13.771C13.0565 18.4878 12.4774 19.0669 12.4774 19.7813C12.4774 20.4957 13.0565 21.0749 13.771 21.0749H26.7064C27.4209 21.0749 28 20.4957 28 19.7813Z" fill="#0A1E30"/>
</svg>
