<svg width="22" height="26" viewBox="0 0 22 26" fill="none" xmlns="http://www.w3.org/2000/svg">
<path fill-rule="evenodd" clip-rule="evenodd" d="M1.0217 0.257067C1.3316 0.0832678 1.6822 -0.00483685 2.03745 0.00181551C2.39269 0.00846792 2.73975 0.109636 3.04292 0.294916L21.04 11.2935C21.3323 11.4722 21.5739 11.7229 21.7415 12.0217C21.9091 12.3206 21.9971 12.6574 21.9971 13C21.9971 13.3427 21.9091 13.6795 21.7415 13.9783C21.5739 14.2772 21.3323 14.5279 21.04 14.7066L3.04293 25.7052C2.73975 25.8905 2.39268 25.9916 2.03745 25.9983C1.6822 26.0049 1.3316 25.9168 1.0217 25.743C0.711797 25.5692 0.453794 25.316 0.274225 25.0094C0.0946555 24.7028 1.78814e-07 24.3539 0 23.9986L0 2.00146C1.78814e-07 1.64616 0.0946547 1.29726 0.274225 0.990673C0.453795 0.684083 0.711799 0.430866 1.0217 0.257067Z" fill="#0A1E30"/>
</svg>
