<svg width="16" height="18" viewBox="0 0 16 18" fill="none" xmlns="http://www.w3.org/2000/svg">
<path fill-rule="evenodd" clip-rule="evenodd" d="M13.9711 0.587665C14.2376 0.582679 14.5005 0.64876 14.7329 0.779109C14.9654 0.909458 15.1589 1.09937 15.2935 1.32931C15.4282 1.55926 15.4992 1.82093 15.4992 2.0874V15.9128C15.4992 16.1793 15.4282 16.441 15.2935 16.6709C15.1589 16.9009 14.9654 17.0908 14.7329 17.2211C14.5005 17.3515 14.2376 17.4175 13.9711 17.4126C13.7047 17.4076 13.4444 17.3317 13.217 17.1927L1.90533 10.28C1.68607 10.146 1.5049 9.95797 1.37921 9.73385C1.25351 9.50972 1.1875 9.25707 1.1875 9.00011C1.1875 8.74315 1.25351 8.4905 1.37921 8.26637C1.5049 8.04225 1.68606 7.85418 1.90533 7.72019L13.217 0.80748C13.4444 0.668525 13.7047 0.592651 13.9711 0.587665Z" fill="#0A1E30"/>
<path fill-rule="evenodd" clip-rule="evenodd" d="M1.25 0C1.66421 0 2 0.335786 2 0.75V17.25C2 17.6642 1.66421 18 1.25 18C0.835786 18 0.5 17.6642 0.5 17.25L0.5 0.75C0.5 0.335786 0.835786 0 1.25 0Z" fill="#0A1E30"/>
</svg>
