<svg width="16" height="18" viewBox="0 0 16 18" fill="none" xmlns="http://www.w3.org/2000/svg">
<path fill-rule="evenodd" clip-rule="evenodd" d="M1.26626 0.779109C1.49869 0.648759 1.76164 0.582679 2.02807 0.587665C2.2945 0.592651 2.5548 0.668525 2.78218 0.80748L14.0939 7.72019C14.3131 7.85418 14.4943 8.04225 14.62 8.26637C14.7457 8.4905 14.8117 8.74315 14.8117 9.00011C14.8117 9.25707 14.7457 9.50972 14.62 9.73385C14.4943 9.95797 14.3131 10.146 14.0939 10.28L2.78218 17.1927C2.5548 17.3317 2.2945 17.4076 2.02807 17.4126C1.76163 17.4175 1.49868 17.3515 1.26626 17.2211C1.03384 17.0908 0.840343 16.9009 0.705666 16.6709C0.57099 16.441 0.5 16.1793 0.5 15.9128L0.5 2.0874C0.5 1.82092 0.57099 1.55925 0.705666 1.32931C0.840342 1.09937 1.03384 0.909459 1.26626 0.779109Z" fill="#0A1E30"/>
<path fill-rule="evenodd" clip-rule="evenodd" d="M14.75 0C15.1642 0 15.5 0.335786 15.5 0.75V17.25C15.5 17.6642 15.1642 18 14.75 18C14.3358 18 14 17.6642 14 17.25V0.75C14 0.335786 14.3358 0 14.75 0Z" fill="#0A1E30"/>
</svg>
