<svg width="23" height="20" viewBox="0 0 23 20" fill="none" xmlns="http://www.w3.org/2000/svg">
<path fill-rule="evenodd" clip-rule="evenodd" d="M18.9902 4.69672C19.2831 4.40383 19.7579 4.40383 20.0508 4.69672C20.7473 5.39316 21.2997 6.21995 21.6766 7.1299C22.0535 8.03984 22.2475 9.01511 22.2475 10C22.2475 10.9849 22.0535 11.9602 21.6766 12.8701C21.2997 13.7801 20.7473 14.6069 20.0508 15.3033C19.7579 15.5962 19.2831 15.5962 18.9902 15.3033C18.6973 15.0104 18.6973 14.5356 18.9902 14.2427C19.5473 13.6855 19.9893 13.0241 20.2908 12.2961C20.5923 11.5682 20.7475 10.788 20.7475 10C20.7475 9.21209 20.5923 8.43188 20.2908 7.70392C19.9893 6.97597 19.5473 6.31453 18.9902 5.75738C18.6973 5.46449 18.6973 4.98961 18.9902 4.69672Z" fill="#0A1E30"/>
<path fill-rule="evenodd" clip-rule="evenodd" d="M13.5795 0.326269C13.8368 0.452122 14 0.713556 14 1.00001V19C14 19.2865 13.8368 19.5479 13.5795 19.6737C13.3222 19.7996 13.0157 19.7679 12.7895 19.592L6.24267 14.5H2C1.60218 14.5 1.22065 14.342 0.93934 14.0607C0.658035 13.7794 0.5 13.3978 0.5 13L0.5 7.00001C0.5 6.60218 0.658035 6.22065 0.93934 5.93935C1.22064 5.65804 1.60217 5.50001 2 5.50001H6.24267L12.7895 0.407992C13.0157 0.232128 13.3222 0.200417 13.5795 0.326269Z" fill="#0A1E30"/>
<path fill-rule="evenodd" clip-rule="evenodd" d="M6.5 5.5C6.91421 5.5 7.25 5.83579 7.25 6.25V13.75C7.25 14.1642 6.91421 14.5 6.5 14.5C6.08579 14.5 5.75 14.1642 5.75 13.75V6.25C5.75 5.83579 6.08579 5.5 6.5 5.5Z" fill="#0A1E30"/>
<path fill-rule="evenodd" clip-rule="evenodd" d="M16.3378 7.34858C16.6307 7.05568 17.1056 7.05568 17.3985 7.34858C17.7467 7.6968 18.0229 8.11019 18.2114 8.56516C18.3998 9.02013 18.4968 9.50777 18.4968 10.0002C18.4968 10.4927 18.3998 10.9803 18.2114 11.4353C18.0229 11.8903 17.7467 12.3037 17.3985 12.6519C17.1056 12.9448 16.6307 12.9448 16.3378 12.6519C16.0449 12.359 16.0449 11.8841 16.3378 11.5912C16.5468 11.3823 16.7125 11.1342 16.8256 10.8613C16.9386 10.5883 16.9968 10.2957 16.9968 10.0002C16.9968 9.70475 16.9386 9.41217 16.8256 9.13919C16.7125 8.86621 16.5468 8.61817 16.3378 8.40924C16.0449 8.11634 16.0449 7.64147 16.3378 7.34858Z" fill="#0A1E30"/>
</svg>
