<svg width="140" height="40" viewBox="0 0 140 40" fill="none" xmlns="http://www.w3.org/2000/svg">
<rect width="140" height="40" rx="6.81657" fill="#0A1E30"/>
<path d="M93.7267 19.2691V21.8068H92.1462V23.4711H93.7267V29.1258C93.7267 31.0567 94.5946 31.8291 96.7781 31.8291C97.1618 31.8291 97.5272 31.7831 97.8469 31.7279V30.0821C97.5729 30.1096 97.3993 30.128 97.0978 30.128C96.1203 30.128 95.6909 29.6683 95.6909 28.6201V23.4711H97.8469V21.8068H95.6909V19.2691H93.7267Z" fill="white"/>
<path d="M103.409 31.967C106.314 31.967 108.096 30.0085 108.096 26.7628C108.096 23.5354 106.305 21.5678 103.409 21.5678C100.504 21.5678 98.7134 23.5354 98.7134 26.7628C98.7134 30.0085 100.495 31.967 103.409 31.967ZM103.409 30.2108C101.701 30.2108 100.742 28.9511 100.742 26.7628C100.742 24.5928 101.701 23.3239 103.409 23.3239C105.108 23.3239 106.077 24.5928 106.077 26.7628C106.077 28.9419 105.108 30.2108 103.409 30.2108Z" fill="white"/>
<path d="M109.62 31.7739H111.584V25.8617C111.584 24.4549 112.635 23.5078 114.124 23.5078C114.471 23.5078 115.056 23.5722 115.22 23.6274V21.6781C115.01 21.6229 114.636 21.5953 114.343 21.5953C113.046 21.5953 111.941 22.3125 111.657 23.2964H111.511V21.7608H109.62V31.7739Z" fill="white"/>
<path d="M120.097 23.2504C121.55 23.2504 122.5 24.271 122.546 25.8433H117.521C117.631 24.2802 118.645 23.2504 120.097 23.2504ZM122.537 29.0706C122.171 29.8522 121.358 30.2843 120.17 30.2843C118.599 30.2843 117.585 29.1718 117.521 27.4156V27.3053H124.546V26.6157C124.546 23.4711 122.875 21.5678 120.106 21.5678C117.302 21.5678 115.52 23.5998 115.52 26.7995C115.52 29.9993 117.265 31.967 120.116 31.967C122.39 31.967 123.98 30.8636 124.428 29.0706H122.537Z" fill="white"/>
<path d="M80.8458 28.0762C80.9973 30.535 83.0332 32.1074 86.0632 32.1074C89.3016 32.1074 91.328 30.4587 91.328 27.8284C91.328 25.7604 90.1728 24.6168 87.37 23.9592L85.8644 23.5876C84.0842 23.1683 83.3646 22.606 83.3646 21.6244C83.3646 20.3855 84.4819 19.5754 86.1579 19.5754C87.7487 19.5754 88.8471 20.3664 89.046 21.6339H91.1102C90.9871 19.3181 88.9607 17.6885 86.1863 17.6885C83.2036 17.6885 81.2151 19.3181 81.2151 21.7673C81.2151 23.7877 82.3419 24.9885 84.8133 25.5698L86.5746 25.9987C88.3831 26.4275 89.1785 27.0565 89.1785 28.1048C89.1785 29.3247 87.9286 30.211 86.2242 30.211C84.3967 30.211 83.1279 29.3818 82.948 28.0762H80.8458Z" fill="white"/>
<path d="M60.4988 21.5953C59.1467 21.5953 57.9774 22.2758 57.3744 23.4159H57.2282V21.7608H55.3371V35.1024H57.3013V30.2568H57.4566C57.9774 31.3142 59.1011 31.9394 60.5171 31.9394C63.0294 31.9394 64.6282 29.9441 64.6282 26.7628C64.6282 23.5814 63.0294 21.5953 60.4988 21.5953ZM59.9416 30.1648C58.2971 30.1648 57.2648 28.8592 57.2648 26.772C57.2648 24.6756 58.2971 23.3699 59.9507 23.3699C61.6134 23.3699 62.6092 24.648 62.6092 26.7628C62.6092 28.8867 61.6134 30.1648 59.9416 30.1648Z" fill="white"/>
<path d="M71.5012 21.5953C70.1491 21.5953 68.9798 22.2758 68.3768 23.4159H68.2306V21.7608H66.3395V35.1024H68.3037V30.2568H68.459C68.9798 31.3142 70.1035 31.9394 71.5195 31.9394C74.0318 31.9394 75.6306 29.9441 75.6306 26.7628C75.6306 23.5814 74.0318 21.5953 71.5012 21.5953ZM70.9439 30.1648C69.2995 30.1648 68.2672 28.8592 68.2672 26.772C68.2672 24.6756 69.2995 23.3699 70.9531 23.3699C72.6158 23.3699 73.6116 24.648 73.6116 26.7628C73.6116 28.8867 72.6158 30.1648 70.9439 30.1648Z" fill="white"/>
<path d="M51.813 31.7739H54.0666L49.1333 18.022H46.8513L41.918 31.7739H44.0958L45.3552 28.1239H50.5631L51.813 31.7739ZM47.8834 20.5189H48.0444L50.0234 26.3322H45.8949L47.8834 20.5189Z" fill="white"/>
<path d="M43.2383 7.64868V14.2827H45.6181C47.5823 14.2827 48.7197 13.0644 48.7197 10.945C48.7197 8.85778 47.5732 7.64868 45.6181 7.64868H43.2383ZM44.2615 8.58654H45.504C46.8698 8.58654 47.6783 9.46004 47.6783 10.9588C47.6783 12.4805 46.8835 13.3448 45.504 13.3448H44.2615V8.58654Z" fill="white"/>
<path d="M52.2032 14.3792C53.6558 14.3792 54.5465 13.4 54.5465 11.7771C54.5465 10.1634 53.6512 9.1796 52.2032 9.1796C50.7506 9.1796 49.8553 10.1634 49.8553 11.7771C49.8553 13.4 50.7461 14.3792 52.2032 14.3792ZM52.2032 13.5011C51.349 13.5011 50.8694 12.8713 50.8694 11.7771C50.8694 10.6921 51.349 10.0577 52.2032 10.0577C53.0528 10.0577 53.537 10.6921 53.537 11.7771C53.537 12.8667 53.0528 13.5011 52.2032 13.5011Z" fill="white"/>
<path d="M62.132 9.27614H61.1499L60.2637 13.0965H60.1861L59.1628 9.27614H58.2219L57.1987 13.0965H57.1256L56.2348 9.27614H55.239L56.6094 14.2827H57.6189L58.6421 10.5956H58.7198L59.7475 14.2827H60.7662L62.132 9.27614Z" fill="white"/>
<path d="M63.263 14.2827H64.2451V11.3541C64.2451 10.5726 64.7064 10.0853 65.4327 10.0853C66.159 10.0853 66.5062 10.4852 66.5062 11.2898V14.2827H67.4883V11.0415C67.4883 9.85081 66.8762 9.1796 65.7662 9.1796C65.017 9.1796 64.5237 9.5152 64.2816 10.0715H64.2085V9.27614H63.263V14.2827Z" fill="white"/>
<path d="M69.035 14.2827H70.0171V7.32227H69.035V14.2827Z" fill="white"/>
<path d="M73.7106 14.3792C75.1632 14.3792 76.054 13.4 76.054 11.7771C76.054 10.1634 75.1587 9.1796 73.7106 9.1796C72.2581 9.1796 71.3628 10.1634 71.3628 11.7771C71.3628 13.4 72.2535 14.3792 73.7106 14.3792ZM73.7106 13.5011C72.8565 13.5011 72.3768 12.8713 72.3768 11.7771C72.3768 10.6921 72.8565 10.0577 73.7106 10.0577C74.5603 10.0577 75.0445 10.6921 75.0445 11.7771C75.0445 12.8667 74.5603 13.5011 73.7106 13.5011Z" fill="white"/>
<path d="M78.9802 13.5333C78.4457 13.5333 78.0574 13.2712 78.0574 12.8207C78.0574 12.3794 78.3681 12.1449 79.0532 12.0989L80.2683 12.0208V12.4391C80.2683 13.0598 79.7202 13.5333 78.9802 13.5333ZM78.7289 14.3654C79.3821 14.3654 79.9257 14.0804 80.2226 13.5793H80.3003V14.2827H81.2458V10.8622C81.2458 9.80484 80.5424 9.1796 79.2953 9.1796C78.1671 9.1796 77.3631 9.73128 77.2626 10.591H78.2128C78.3224 10.237 78.7015 10.0347 79.2497 10.0347C79.9211 10.0347 80.2683 10.3335 80.2683 10.8622V11.2944L78.9208 11.3725C77.7377 11.4461 77.0708 11.9656 77.0708 12.8667C77.0708 13.7816 77.7697 14.3654 78.7289 14.3654Z" fill="white"/>
<path d="M84.5786 14.3654C85.2637 14.3654 85.8439 14.039 86.1408 13.4919H86.2184V14.2827H87.1594V7.32227H86.1773V10.0715H86.1042C85.8347 9.5198 85.2592 9.19339 84.5786 9.19339C83.3224 9.19339 82.5139 10.1956 82.5139 11.7771C82.5139 13.3632 83.3133 14.3654 84.5786 14.3654ZM84.8572 10.0807C85.6794 10.0807 86.1956 10.7381 86.1956 11.7817C86.1956 12.8299 85.684 13.4781 84.8572 13.4781C84.0258 13.4781 83.5279 12.8391 83.5279 11.7771C83.5279 10.7243 84.0304 10.0807 84.8572 10.0807Z" fill="white"/>
<path d="M93.528 14.3792C94.9805 14.3792 95.8713 13.4 95.8713 11.7771C95.8713 10.1634 94.976 9.1796 93.528 9.1796C92.0754 9.1796 91.1801 10.1634 91.1801 11.7771C91.1801 13.4 92.0708 14.3792 93.528 14.3792ZM93.528 13.5011C92.6738 13.5011 92.1941 12.8713 92.1941 11.7771C92.1941 10.6921 92.6738 10.0577 93.528 10.0577C94.3776 10.0577 94.8618 10.6921 94.8618 11.7771C94.8618 12.8667 94.3776 13.5011 93.528 13.5011Z" fill="white"/>
<path d="M97.1713 14.2827H98.1534V11.3541C98.1534 10.5726 98.6148 10.0853 99.3411 10.0853C100.067 10.0853 100.415 10.4852 100.415 11.2898V14.2827H101.397V11.0415C101.397 9.85081 100.785 9.1796 99.6745 9.1796C98.9254 9.1796 98.432 9.5152 98.1899 10.0715H98.1169V9.27614H97.1713V14.2827Z" fill="white"/>
<path d="M105.92 8.03026V9.29913H105.129V10.1313H105.92V12.9586C105.92 13.9241 106.354 14.3102 107.445 14.3102C107.637 14.3102 107.82 14.2873 107.98 14.2597V13.4367C107.843 13.4505 107.756 13.4597 107.605 13.4597C107.117 13.4597 106.902 13.2299 106.902 12.7058V10.1313H107.98V9.29913H106.902V8.03026H105.92Z" fill="white"/>
<path d="M109.298 14.2827H110.28V11.3587C110.28 10.6002 110.728 10.0899 111.532 10.0899C112.226 10.0899 112.596 10.4944 112.596 11.2944V14.2827H113.578V11.0507C113.578 9.86001 112.925 9.1842 111.865 9.1842C111.116 9.1842 110.591 9.5198 110.349 10.0807H110.271V7.32227H109.298V14.2827Z" fill="white"/>
<path d="M117.121 10.0209C117.847 10.0209 118.322 10.5312 118.345 11.3174H115.833C115.888 10.5358 116.395 10.0209 117.121 10.0209ZM118.341 12.931C118.158 13.3218 117.751 13.5379 117.158 13.5379C116.372 13.5379 115.865 12.9816 115.833 12.1035V12.0483H119.346V11.7035C119.346 10.1313 118.51 9.1796 117.126 9.1796C115.723 9.1796 114.833 10.1956 114.833 11.7955C114.833 13.3954 115.705 14.3792 117.13 14.3792C118.268 14.3792 119.062 13.8275 119.286 12.931H118.341Z" fill="white"/>
<path d="M31.2604 20.4876C31.2842 18.6256 32.2778 16.8637 33.854 15.8884C32.8597 14.4591 31.1942 13.5529 29.4614 13.4984C27.6132 13.3031 25.8215 14.6114 24.8797 14.6114C23.9197 14.6114 22.4697 13.5178 20.9082 13.5501C18.873 13.6163 16.9756 14.7809 15.9854 16.5717C13.8568 20.2808 15.4445 25.7318 17.4835 28.7299C18.5036 30.1979 19.6959 31.8378 21.2559 31.7797C22.7825 31.7159 23.3527 30.7999 25.1954 30.7999C27.021 30.7999 27.5559 31.7797 29.1476 31.7427C30.7857 31.7159 31.8178 30.2681 32.8021 28.7861C33.5351 27.74 34.0991 26.5839 34.4733 25.3606C32.5482 24.5411 31.2627 22.5913 31.2604 20.4876Z" fill="white"/>
<path d="M28.254 11.5267C29.1471 10.4476 29.5871 9.06054 29.4806 7.66016C28.116 7.8044 26.8556 8.46077 25.9504 9.49849C25.0652 10.5124 24.6045 11.875 24.6916 13.2219C26.0566 13.236 27.3986 12.5974 28.254 11.5267Z" fill="white"/>
</svg>
