<svg width="22" height="19" viewBox="0 0 22 19" fill="none" xmlns="http://www.w3.org/2000/svg">
<path fill-rule="evenodd" clip-rule="evenodd" d="M11.4053 1.17215C10.7317 1.84571 10.7317 2.93775 11.4053 3.6113L17.5031 9.70912L11.4053 15.8069C10.7317 16.4805 10.7317 17.5725 11.4053 18.2461C12.0788 18.9196 13.1709 18.9196 13.8444 18.2461L21.1618 10.9287C21.4853 10.6052 21.667 10.1666 21.667 9.70912C21.667 9.2517 21.4853 8.813 21.1618 8.48955L13.8444 1.17215C13.1709 0.498605 12.0788 0.498605 11.4053 1.17215Z" fill="#0A1E30"/>
<path fill-rule="evenodd" clip-rule="evenodd" d="M21.667 9.70911C21.667 8.75657 20.8948 7.98438 19.9423 7.98438H2.69493C1.74238 7.98438 0.970196 8.75657 0.970196 9.70911C0.970196 10.6617 1.74238 11.4338 2.69493 11.4338H19.9423C20.8948 11.4338 21.667 10.6617 21.667 9.70911Z" fill="#0A1E30"/>
</svg>
