<svg width="17" height="16" viewBox="0 0 17 16" fill="none" xmlns="http://www.w3.org/2000/svg">
<path fill-rule="evenodd" clip-rule="evenodd" d="M0.593183 6.83263C0.536865 6.21368 1.01304 5.66802 1.65676 5.61386L14.4778 4.53531C15.1215 4.48116 15.689 4.93902 15.7453 5.55798L15.9492 7.79942C16.0056 8.41837 15.5294 8.96404 14.8857 9.01819L2.06465 10.0967C1.42093 10.1509 0.853445 9.69303 0.797128 9.07407L0.593183 6.83263ZM14.5798 5.65603L1.75873 6.73458L1.96268 8.97602L14.7837 7.89747L14.5798 5.65603Z" fill="#46D1DA"/>
<path fill-rule="evenodd" clip-rule="evenodd" d="M2.54566 8.92705C2.86752 8.89997 3.15127 9.12891 3.17942 9.43838L3.6383 14.4816L14.1282 13.5992L13.6694 8.55593C13.6412 8.24645 13.8793 7.97362 14.2011 7.94655C14.523 7.91947 14.8067 8.1484 14.8349 8.45788L15.2938 13.5011C15.3208 13.7983 15.224 14.0937 15.0245 14.3223C14.825 14.5509 14.5393 14.6939 14.2302 14.7199L3.74027 15.6023C3.43115 15.6283 3.12395 15.5352 2.88624 15.3434C2.64853 15.1516 2.4998 14.8769 2.47275 14.5797L2.01388 9.53643C1.98572 9.22696 2.22381 8.95412 2.54566 8.92705Z" fill="#46D1DA"/>
<path fill-rule="evenodd" clip-rule="evenodd" d="M8.06715 5.07451C8.38901 5.04743 8.67275 5.27637 8.70091 5.58584L9.51669 14.5516C9.54485 14.8611 9.30676 15.1339 8.9849 15.161C8.66304 15.1881 8.3793 14.9591 8.35114 14.6496L7.53536 5.68389C7.5072 5.37442 7.74529 5.10159 8.06715 5.07451Z" fill="#46D1DA"/>
<path fill-rule="evenodd" clip-rule="evenodd" d="M5.67418 1.58667C6.29218 1.53451 6.90643 1.72046 7.38189 2.10363C7.7075 2.36634 7.93378 2.74333 8.09482 3.10056C8.26008 3.46716 8.38066 3.86748 8.46822 4.2284C8.55631 4.59154 8.61425 4.92858 8.65019 5.1741C8.66822 5.29728 8.68087 5.39847 8.68909 5.46967C8.6932 5.50529 8.69621 5.53347 8.69823 5.55322L8.70055 5.57641L8.70118 5.58305L8.70137 5.58508C8.70137 5.58508 8.70148 5.58625 8.1187 5.63528C8.16969 6.19564 8.16947 6.19565 8.16947 6.19565L8.16848 6.19574L8.16636 6.19591L8.15945 6.19647L8.1353 6.1983C8.11472 6.19981 8.08534 6.20186 8.04814 6.20415C7.97379 6.20873 7.86795 6.21432 7.73866 6.21864C7.48096 6.22724 7.1257 6.2309 6.73848 6.21054C6.35361 6.19031 5.92267 6.14564 5.5185 6.05281C5.12466 5.96234 4.69951 5.81374 4.3739 5.55104C3.89889 5.16734 3.60153 4.61778 3.54764 4.02352C3.49374 3.42926 3.68748 2.83874 4.08625 2.38178C4.48502 1.92482 5.05618 1.63883 5.67418 1.58667ZM5.12596 4.68924C5.24849 4.7881 5.46851 4.88467 5.79034 4.95859C6.10184 5.03014 6.45707 5.06907 6.80236 5.08722C7.03781 5.0996 7.26193 5.102 7.45498 5.09977C7.42375 4.91657 7.38237 4.70477 7.32881 4.48396C7.25025 4.16014 7.1487 3.83053 7.02133 3.54798C6.88975 3.25609 6.75264 3.06453 6.63012 2.96566M6.63012 2.96566C6.39242 2.77422 6.08538 2.68129 5.77649 2.70736C5.46749 2.73344 5.1819 2.87644 4.98252 3.10492C4.78313 3.3334 4.68627 3.62865 4.71321 3.92578C4.74015 4.22281 4.88861 4.4974 5.12596 4.68924M8.1187 5.63528L8.16947 6.19565C8.32403 6.18265 8.46711 6.11113 8.56684 5.99684C8.66657 5.88256 8.71489 5.7337 8.70137 5.58508L8.1187 5.63528Z" fill="#46D1DA"/>
<path fill-rule="evenodd" clip-rule="evenodd" d="M9.79457 1.23999C9.17654 1.29181 8.6052 1.57749 8.20616 2.03423C7.93294 2.34731 7.77819 2.75636 7.6841 3.13505C7.58756 3.52367 7.5411 3.93805 7.52006 4.30811C7.49888 4.68044 7.5027 5.02203 7.51164 5.26982C7.51613 5.39414 7.52194 5.49591 7.52671 5.5674C7.52909 5.60316 7.53122 5.63142 7.53279 5.6512L7.5347 5.67443L7.53528 5.68107L7.53546 5.68311C7.53546 5.68311 7.53556 5.68427 8.11834 5.63525C8.16932 6.19561 8.16954 6.19559 8.16954 6.19559L8.17054 6.19551L8.17265 6.19532L8.17955 6.19472L8.20367 6.19249C8.22421 6.19054 8.25352 6.18765 8.29057 6.1837C8.36461 6.1758 8.46985 6.16363 8.59796 6.14629C8.8533 6.11173 9.20382 6.05603 9.58148 5.97132C9.95685 5.88713 10.3732 5.77119 10.7544 5.61228C11.126 5.45743 11.5178 5.2401 11.791 4.92702C12.1895 4.46985 12.3831 3.87898 12.3289 3.28475C12.2746 2.69052 11.9772 2.14132 11.502 1.75788C11.0267 1.37445 10.4126 1.18817 9.79457 1.23999ZM10.8948 4.20388C10.7919 4.3217 10.5927 4.45355 10.2891 4.58008C9.99528 4.70255 9.65247 4.8002 9.3157 4.87573C9.08607 4.92724 8.86579 4.96702 8.67526 4.99706C8.67294 4.81142 8.67544 4.59593 8.68831 4.36954C8.7072 4.03752 8.74768 3.69596 8.82209 3.39643C8.89896 3.08701 8.99938 2.87547 9.10219 2.75765M9.10219 2.75765C9.3017 2.52942 9.5873 2.38664 9.89621 2.36074C10.2052 2.33483 10.5123 2.42797 10.7499 2.61968C10.9875 2.8114 11.1362 3.086 11.1634 3.38312C11.1905 3.68012 11.0939 3.97533 10.8948 4.20388M8.11834 5.63525L8.16954 6.19559C8.01498 6.20859 7.86116 6.16204 7.74231 6.06615C7.62345 5.97026 7.54898 5.83172 7.53546 5.68311L8.11834 5.63525Z" fill="#46D1DA"/>
</svg>
