<svg width="140" height="40" viewBox="0 0 140 40" fill="none" xmlns="http://www.w3.org/2000/svg">
<rect width="140" height="40" rx="6.21714" fill="#0A1E30"/>
<path d="M70.6404 21.7519C68.271 21.7519 66.3398 23.5409 66.3398 26.0049C66.3398 28.4539 68.271 30.2578 70.6404 30.2578C73.0108 30.2578 74.942 28.4539 74.942 26.0049C74.941 23.5409 73.0098 21.7519 70.6404 21.7519ZM70.6404 28.5839C69.3419 28.5839 68.2226 27.5209 68.2226 26.0059C68.2226 24.4749 69.3429 23.4278 70.6404 23.4278C71.9389 23.4278 73.0582 24.4749 73.0582 26.0059C73.0582 27.5199 71.9389 28.5839 70.6404 28.5839ZM61.2574 21.7519C58.888 21.7519 56.9568 23.5409 56.9568 26.0049C56.9568 28.4539 58.888 30.2578 61.2574 30.2578C63.6278 30.2578 65.559 28.4539 65.559 26.0049C65.559 23.5409 63.6278 21.7519 61.2574 21.7519ZM61.2574 28.5839C59.9589 28.5839 58.8396 27.5209 58.8396 26.0059C58.8396 24.4749 59.9599 23.4278 61.2574 23.4278C62.556 23.4278 63.6752 24.4749 63.6752 26.0059C63.6762 27.5199 62.556 28.5839 61.2574 28.5839ZM50.0973 23.0578V24.8619H54.4473C54.3174 25.8769 53.9769 26.6179 53.4571 27.1329C52.8244 27.7608 51.8341 28.4538 50.0973 28.4538C47.4197 28.4538 45.3263 26.3109 45.3263 23.6529C45.3263 20.9949 47.4197 18.8519 50.0973 18.8519C51.542 18.8519 52.5967 19.4159 53.3755 20.1409L54.6579 18.8679C53.5699 17.8369 52.1263 17.0479 50.0973 17.0479C46.4294 17.0479 43.3457 20.0119 43.3457 23.6529C43.3457 27.2939 46.4294 30.2578 50.0973 30.2578C52.0769 30.2578 53.5709 29.6128 54.7385 28.4049C55.9393 27.2128 56.3131 25.5368 56.3131 24.1838C56.3131 23.7658 56.2808 23.3789 56.2153 23.0569H50.0973V23.0578ZM95.741 24.4589C95.3843 23.5089 94.2963 21.7519 92.073 21.7519C89.8658 21.7519 88.0313 23.4759 88.0313 26.0049C88.0313 28.3889 89.8496 30.2578 92.2835 30.2578C94.247 30.2578 95.3833 29.0659 95.8548 28.3729L94.3941 27.4058C93.9075 28.1148 93.2416 28.5819 92.2835 28.5819C91.3265 28.5819 90.6445 28.1468 90.2063 27.2929L95.9354 24.9408L95.741 24.4589ZM89.898 25.8769C89.8496 24.2329 91.1804 23.3959 92.1385 23.3959C92.885 23.3959 93.5176 23.7669 93.7292 24.2979L89.898 25.8769ZM85.2408 30.0008H87.1226V17.4999H85.2408V30.0008ZM82.1561 22.7029H82.0916C81.6695 22.2029 80.8575 21.7519 79.836 21.7519C77.6933 21.7519 75.7298 23.6209 75.7298 26.0219C75.7298 28.4059 77.6933 30.2588 79.836 30.2588C80.8585 30.2588 81.6695 29.8078 82.0916 29.2928H82.1561V29.9048C82.1561 31.5318 81.2796 32.4019 79.8682 32.4019C78.7158 32.4019 78.0015 31.5809 77.7094 30.8879L76.0703 31.5648C76.5408 32.6918 77.79 34.0778 79.8682 34.0778C82.0755 34.0778 83.9422 32.7888 83.9422 29.6468V22.0108H82.1571V22.7029H82.1561ZM79.9982 28.5839C78.6997 28.5839 77.6127 27.5038 77.6127 26.0219C77.6127 24.5229 78.6997 23.4278 79.9982 23.4278C81.2796 23.4278 82.286 24.5229 82.286 26.0219C82.286 27.5038 81.2796 28.5839 79.9982 28.5839ZM104.56 17.4999H100.056V30.0008H101.935V25.2649H104.559C106.642 25.2649 108.691 23.7679 108.691 21.3829C108.691 18.9979 106.643 17.4999 104.56 17.4999ZM104.608 23.5248H101.935V19.2399H104.608C106.013 19.2399 106.811 20.3949 106.811 21.3829C106.811 22.3509 106.013 23.5248 104.608 23.5248ZM116.226 21.7299C114.865 21.7299 113.455 22.3249 112.872 23.6439L114.54 24.3349C114.897 23.6439 115.562 23.4179 116.258 23.4179C117.23 23.4179 118.218 23.9969 118.234 25.0259V25.1549C117.894 24.9619 117.164 24.6729 116.274 24.6729C114.476 24.6729 112.644 25.6539 112.644 27.4869C112.644 29.1599 114.119 30.2368 115.771 30.2368C117.035 30.2368 117.732 29.6739 118.169 29.0139H118.233V29.9789H120.049V25.1859C120.05 22.9679 118.379 21.7299 116.226 21.7299ZM115.998 28.5809C115.383 28.5809 114.524 28.2749 114.524 27.5189C114.524 26.5539 115.594 26.1838 116.518 26.1838C117.343 26.1838 117.733 26.3609 118.234 26.6019C118.088 27.7609 117.084 28.5809 115.998 28.5809ZM126.659 22.0029L124.504 27.4229H124.44L122.204 22.0029H120.179L123.532 29.5778L121.62 33.7918H123.581L128.75 22.0029H126.659ZM109.729 30.0008H111.608V17.4999H109.729V30.0008Z" fill="white"/>
<path d="M49.7691 10.2442C49.7691 11.0822 49.5193 11.7492 49.0186 12.2472C48.4504 12.8392 47.709 13.1352 46.7983 13.1352C45.9259 13.1352 45.1834 12.8352 44.5739 12.2352C43.9634 11.6342 43.6582 10.8902 43.6582 10.0022C43.6582 9.11316 43.9634 8.36916 44.5739 7.76916C45.1834 7.16816 45.9259 6.86816 46.7983 6.86816C47.2315 6.86816 47.6455 6.95216 48.0384 7.11916C48.4323 7.28716 48.7476 7.51016 48.9834 7.78916L48.4525 8.31716C48.0525 7.84216 47.5015 7.60516 46.7973 7.60516C46.1606 7.60516 45.6106 7.82716 45.1461 8.27116C44.6817 8.71517 44.45 9.29216 44.45 10.0012C44.45 10.7102 44.6817 11.2872 45.1461 11.7312C45.6106 12.1752 46.1606 12.3972 46.7973 12.3972C47.4722 12.3972 48.0354 12.1742 48.4857 11.7272C48.7778 11.4362 48.9471 11.0312 48.9924 10.5122H46.7973V9.79117H49.7258C49.756 9.94817 49.7691 10.0992 49.7691 10.2442Z" fill="white"/>
<path d="M54.4134 7.73822H51.6611V9.64022H54.1434V10.3612H51.6611V12.2632H54.4134V13.0012H50.8844V7.00122H54.4134V7.73822Z" fill="white"/>
<path d="M57.6883 13.0012H56.9116V7.73822H55.2232V7.00122H59.3768V7.73822H57.6883V13.0012Z" fill="white"/>
<path d="M62.3818 13.0012V7.00122H63.1585V13.0012H62.3818Z" fill="white"/>
<path d="M66.603 13.0012H65.8263V7.73822H64.1379V7.00122H68.2914V7.73822H66.603V13.0012Z" fill="white"/>
<path d="M76.154 12.2262C75.5596 12.8322 74.8212 13.1352 73.9377 13.1352C73.0542 13.1352 72.3158 12.8322 71.7224 12.2262C71.1281 11.6202 70.8319 10.8782 70.8319 10.0012C70.8319 9.12421 71.1281 8.38221 71.7224 7.77621C72.3158 7.17021 73.0542 6.86621 73.9377 6.86621C74.8162 6.86621 75.5536 7.17121 76.15 7.78021C76.7464 8.38921 77.0446 9.12921 77.0446 10.0012C77.0446 10.8782 76.7474 11.6202 76.154 12.2262ZM72.2956 11.7232C72.7429 12.1732 73.29 12.3972 73.9377 12.3972C74.5855 12.3972 75.1335 12.1722 75.5798 11.7232C76.0271 11.2732 76.2517 10.6992 76.2517 10.0012C76.2517 9.30321 76.0271 8.72921 75.5798 8.27921C75.1335 7.82921 74.5855 7.60521 73.9377 7.60521C73.29 7.60521 72.7429 7.83021 72.2956 8.27921C71.8494 8.72921 71.6247 9.30321 71.6247 10.0012C71.6247 10.6992 71.8494 11.2732 72.2956 11.7232Z" fill="white"/>
<path d="M78.1346 13.0012V7.00122H79.0796L82.0172 11.6682H82.0504L82.0172 10.5122V7.00122H82.7939V13.0012H81.9829L78.9093 8.10722H78.8761L78.9093 9.26322V13.0012H78.1346Z" fill="white"/>
<path fill-rule="evenodd" clip-rule="evenodd" d="M12.2302 7.96936C12.1121 8.23628 12.0469 8.56295 12.0469 8.94269V31.0587C12.0469 31.4393 12.1122 31.766 12.2304 32.0329L24.3503 20.0004L12.2302 7.96936ZM12.9345 32.7563C13.3835 32.9458 13.9687 32.8848 14.6067 32.5257L28.8657 24.4826L25.0667 20.7115L12.9345 32.7563ZM29.78 23.9679L34.2521 21.4457C35.6595 20.6507 35.6595 19.3517 34.2521 18.5577L29.7781 16.0341L25.7831 20.0003L29.78 23.9679ZM28.8644 15.5188L14.6067 7.4767C13.9686 7.11678 13.3834 7.05618 12.9344 7.24605L25.0667 19.2892L28.8644 15.5188Z" fill="white"/>
</svg>
