<svg width="24" height="24" viewBox="0 0 24 24" fill="none" xmlns="http://www.w3.org/2000/svg">
<rect width="24" height="24" rx="6" fill="#F5F6F7"/>
<path fill-rule="evenodd" clip-rule="evenodd" d="M11.6934 8.49109C11.9685 8.46702 12.211 8.67052 12.2351 8.94561L12.4966 11.9342C12.5206 12.2093 12.3171 12.4518 12.042 12.4759C11.7669 12.4999 11.5244 12.2964 11.5004 12.0213L11.2389 9.03277C11.2148 8.75767 11.4183 8.51516 11.6934 8.49109Z" fill="#0A1E30"/>
<path fill-rule="evenodd" clip-rule="evenodd" d="M11.5456 11.7665C11.6623 11.5162 11.9598 11.4079 12.2101 11.5246L14.929 12.7925C15.1793 12.9092 15.2876 13.2067 15.1709 13.457C15.0542 13.7072 14.7567 13.8155 14.5064 13.6988L11.7875 12.4309C11.5372 12.3142 11.4289 12.0167 11.5456 11.7665Z" fill="#0A1E30"/>
<path fill-rule="evenodd" clip-rule="evenodd" d="M5.59575 7.75232C5.87085 7.72825 6.11336 7.93175 6.13743 8.20684L6.31174 10.1992L8.30413 10.0249C8.57922 10.0009 8.82174 10.2043 8.84581 10.4794C8.86987 10.7545 8.66638 10.997 8.39129 11.0211L5.9008 11.239C5.62571 11.2631 5.38319 11.0596 5.35912 10.7845L5.14123 8.294C5.11717 8.0189 5.32066 7.77639 5.59575 7.75232Z" fill="#0A1E30"/>
<path fill-rule="evenodd" clip-rule="evenodd" d="M10.3198 6.21757C11.4591 5.8855 12.6713 5.89872 13.803 6.25557C14.9348 6.61241 15.9353 7.29685 16.6781 8.22233C17.4209 9.14781 17.8725 10.2728 17.976 11.4549C18.0794 12.6371 17.8299 13.8234 17.2592 14.8638C16.6884 15.9042 15.8219 16.752 14.7693 17.2999C13.7167 17.8479 12.5252 18.0714 11.3456 17.9422C10.166 17.813 9.05113 17.3369 8.14208 16.5741C7.93054 16.3966 7.90295 16.0813 8.08045 15.8697C8.25795 15.6582 8.57333 15.6306 8.78486 15.8081C9.54241 16.4437 10.4714 16.8405 11.4545 16.9482C12.4375 17.0558 13.4304 16.8695 14.3075 16.4129C15.1847 15.9563 15.9068 15.2498 16.3824 14.3828C16.8581 13.5158 17.066 12.5272 16.9798 11.5421C16.8936 10.5569 16.5172 9.61948 15.8982 8.84825C15.2792 8.07702 14.4455 7.50665 13.5023 7.20928C12.5592 6.91191 11.5491 6.90089 10.5997 7.17762C9.65026 7.45434 8.80424 8.00638 8.16858 8.76393L6.24022 11.0621C6.06272 11.2736 5.74734 11.3012 5.5358 11.1237C5.32426 10.9462 5.29667 10.6308 5.47417 10.4193L7.40254 8.12114C8.16532 7.21209 9.18055 6.54964 10.3198 6.21757Z" fill="#0A1E30"/>
</svg>
