<svg width="24" height="24" viewBox="0 0 24 24" fill="none" xmlns="http://www.w3.org/2000/svg">
<rect width="24" height="24" rx="6" fill="#F5F6F7"/>
<path fill-rule="evenodd" clip-rule="evenodd" d="M11.5427 6.51977C9.61705 6.68824 8.19258 8.38585 8.36105 10.3115C8.52952 12.2371 10.2271 13.6616 12.1528 13.4931C14.0784 13.3247 15.5029 11.627 15.3344 9.7014C15.1659 7.77576 13.4683 6.35129 11.5427 6.51977ZM7.36486 10.3986C7.14825 7.92282 8.97971 5.74018 11.4555 5.52357C13.9314 5.30696 16.114 7.13842 16.3306 9.61425C16.5472 12.0901 14.7158 14.2727 12.2399 14.4893C9.76411 14.7059 7.58146 12.8745 7.36486 10.3986Z" fill="#0A1E30"/>
<path fill-rule="evenodd" clip-rule="evenodd" d="M12.2398 14.4893C11.103 14.5888 10.0125 14.9856 9.07764 15.64C8.14281 16.2943 7.39665 17.1832 6.9141 18.2172C6.79733 18.4675 6.49981 18.5757 6.24957 18.4589C5.99933 18.3421 5.89114 18.0446 6.00792 17.7944C6.56467 16.6013 7.42559 15.5757 8.50418 14.8207C9.58277 14.0657 10.8411 13.6079 12.1526 13.4932C13.4642 13.3784 14.7829 13.6109 15.9762 14.1671C17.1695 14.7234 18.1954 15.5839 18.9508 16.6621C19.1093 16.8883 19.0544 17.2001 18.8282 17.3585C18.6021 17.517 18.2903 17.4621 18.1318 17.2359C17.4771 16.3014 16.5879 15.5556 15.5537 15.0735C14.5194 14.5914 13.3765 14.3899 12.2398 14.4893Z" fill="#0A1E30"/>
</svg>
