<svg width="24" height="24" viewBox="0 0 24 24" fill="none" xmlns="http://www.w3.org/2000/svg">
<rect width="24" height="24" rx="6" fill="#0A1E30"/>
<path fill-rule="evenodd" clip-rule="evenodd" d="M5.36255 10.0736C5.31441 9.5234 5.7214 9.03837 6.27158 8.99024L17.2297 8.03152C17.7799 7.98339 18.2649 8.39038 18.3131 8.94056L18.4874 10.933C18.5355 11.4831 18.1285 11.9682 17.5784 12.0163L6.62021 12.975C6.07002 13.0232 5.58499 12.6162 5.53686 12.066L5.36255 10.0736ZM17.3169 9.02772L6.35874 9.98643L6.53305 11.9788L17.4912 11.0201L17.3169 9.02772Z" fill="#46D1DA"/>
<path fill-rule="evenodd" clip-rule="evenodd" d="M7.0313 11.9352C7.30639 11.9111 7.54891 12.1146 7.57298 12.3897L7.96518 16.8726L16.9309 16.0882L16.5387 11.6053C16.5147 11.3302 16.7182 11.0877 16.9932 11.0636C17.2683 11.0396 17.5109 11.2431 17.5349 11.5181L17.9271 16.001C17.9502 16.2652 17.8675 16.5278 17.697 16.731C17.5265 16.9341 17.2823 17.0613 17.0181 17.0844L8.05233 17.8688C7.78813 17.8919 7.52556 17.8091 7.32239 17.6386C7.11922 17.4681 6.9921 17.2239 6.96898 16.9597L6.57678 12.4769C6.55271 12.2018 6.75621 11.9592 7.0313 11.9352Z" fill="#46D1DA"/>
<path fill-rule="evenodd" clip-rule="evenodd" d="M11.7501 8.51087C12.0251 8.4868 12.2677 8.69029 12.2917 8.96538L12.989 16.9349C13.013 17.21 12.8095 17.4526 12.5345 17.4766C12.2594 17.5007 12.0168 17.2972 11.9928 17.0221L11.2955 9.05254C11.2715 8.77745 11.475 8.53493 11.7501 8.51087Z" fill="#46D1DA"/>
<path fill-rule="evenodd" clip-rule="evenodd" d="M9.70471 5.41021C10.2329 5.36385 10.7579 5.52913 11.1643 5.86973C11.4426 6.10325 11.636 6.43835 11.7736 6.75589C11.9149 7.08175 12.0179 7.43759 12.0928 7.75842C12.1681 8.08121 12.2176 8.3808 12.2483 8.59904C12.2637 8.70853 12.2745 8.79848 12.2816 8.86177C12.2851 8.89343 12.2876 8.91848 12.2894 8.93603L12.2914 8.95665L12.2919 8.96255L12.2921 8.96436C12.2921 8.96436 12.2921 8.96539 11.794 9.00897C11.8376 9.50707 11.8374 9.50709 11.8374 9.50709L11.8366 9.50716L11.8348 9.50731L11.8289 9.50781L11.8082 9.50944C11.7906 9.51078 11.7655 9.5126 11.7337 9.51464C11.6702 9.51871 11.5797 9.52368 11.4692 9.52752C11.249 9.53516 10.9453 9.53842 10.6144 9.52032C10.2854 9.50233 9.91709 9.46263 9.57165 9.38011C9.23503 9.2997 8.87166 9.16761 8.59336 8.93409C8.18737 8.59303 7.93322 8.10453 7.88715 7.5763C7.84109 7.04806 8.00667 6.52316 8.3475 6.11698C8.68833 5.71079 9.17651 5.45657 9.70471 5.41021ZM9.23615 8.16805C9.34088 8.25592 9.52892 8.34177 9.80399 8.40748C10.0702 8.47107 10.3738 8.50567 10.669 8.52181C10.8702 8.53282 11.0618 8.53495 11.2268 8.53296C11.2001 8.37012 11.1647 8.18185 11.1189 7.98558C11.0518 7.69774 10.965 7.40475 10.8561 7.1536C10.7437 6.89414 10.6265 6.72387 10.5218 6.63598M10.5218 6.63598C10.3186 6.46581 10.0562 6.38321 9.79215 6.40638C9.52805 6.42956 9.28396 6.55667 9.11355 6.75976C8.94313 6.96286 8.86034 7.22531 8.88337 7.48942C8.9064 7.75344 9.03328 7.99752 9.23615 8.16805M11.794 9.00897L11.8374 9.50709C11.9695 9.49553 12.0918 9.43195 12.1771 9.33037C12.2623 9.22878 12.3036 9.09646 12.2921 8.96436L11.794 9.00897Z" fill="#46D1DA"/>
<path fill-rule="evenodd" clip-rule="evenodd" d="M13.2269 5.102C12.6987 5.14806 12.2104 5.402 11.8693 5.80799C11.6358 6.08628 11.5035 6.44988 11.4231 6.78649C11.3406 7.13194 11.3009 7.50027 11.2829 7.82921C11.2648 8.16017 11.2681 8.46381 11.2757 8.68407C11.2795 8.79458 11.2845 8.88504 11.2886 8.94858C11.2906 8.98037 11.2924 9.00549 11.2938 9.02308L11.2954 9.04372L11.2959 9.04962L11.2961 9.05143C11.2961 9.05143 11.2962 9.05247 11.7943 9.00889C11.8378 9.50699 11.838 9.50697 11.838 9.50697L11.8389 9.5069L11.8407 9.50674L11.8466 9.5062L11.8672 9.50422C11.8847 9.50249 11.9098 9.49992 11.9415 9.4964C12.0047 9.48938 12.0947 9.47857 12.2042 9.46315C12.4224 9.43243 12.722 9.38292 13.0448 9.30762C13.3656 9.23279 13.7215 9.12973 14.0473 8.98848C14.3649 8.85084 14.6998 8.65765 14.9333 8.37936C15.2739 7.97298 15.4394 7.44776 15.393 6.91956C15.3466 6.39135 15.0924 5.90318 14.6862 5.56235C14.2801 5.22152 13.7552 5.05593 13.2269 5.102ZM14.1673 7.73657C14.0794 7.8413 13.9091 7.95849 13.6496 8.07096C13.3985 8.17983 13.1055 8.26663 12.8176 8.33377C12.6214 8.37955 12.4331 8.41491 12.2703 8.44161C12.2683 8.2766 12.2704 8.08505 12.2814 7.88382C12.2976 7.58869 12.3321 7.28508 12.3957 7.01884C12.4614 6.74379 12.5473 6.55576 12.6352 6.45102M12.6352 6.45102C12.8057 6.24816 13.0498 6.12124 13.3138 6.09822C13.5779 6.07518 13.8404 6.15798 14.0435 6.32839C14.2466 6.49881 14.3737 6.74289 14.3968 7.007C14.42 7.271 14.3374 7.53341 14.1673 7.73657M11.7943 9.00889L11.838 9.50697C11.7059 9.51853 11.5744 9.47716 11.4729 9.39192C11.3713 9.30668 11.3076 9.18354 11.2961 9.05143L11.7943 9.00889Z" fill="#46D1DA"/>
</svg>
