<svg width="24" height="24" viewBox="0 0 24 24" fill="none" xmlns="http://www.w3.org/2000/svg">
<rect width="24" height="24" rx="6" fill="#F5F6F7"/>
<path fill-rule="evenodd" clip-rule="evenodd" d="M7.28996 6.68227C7.46044 6.4791 7.70464 6.35198 7.96885 6.32886L14.9422 5.71877C15.2064 5.69565 15.469 5.77844 15.6722 5.94892C15.8753 6.1194 16.0024 6.3636 16.0256 6.62781L16.9843 17.586C17.0001 17.767 16.9165 17.9424 16.7658 18.0441C16.6151 18.1457 16.4211 18.1575 16.2592 18.075L12.3345 16.0751L8.81759 18.726C8.67244 18.8355 8.47935 18.8575 8.31329 18.7836C8.14723 18.7096 8.03437 18.5514 8.01853 18.3704L7.05981 7.41221C7.0367 7.148 7.11948 6.88543 7.28996 6.68227ZM15.0294 6.71496L8.05601 7.32505L8.93609 17.3845L11.9821 15.0884C12.1348 14.9733 12.3397 14.9554 12.5101 15.0422L15.9095 16.7745L15.0294 6.71496Z" fill="#0A1E30"/>
</svg>
